<svg width="82" height="40" viewBox="0 0 82 40" fill="none" xmlns="http://www.w3.org/2000/svg">
<path d="M16.68 20.812C16.9227 20.812 17.1093 20.9333 17.24 21.176C17.3893 21.4 17.464 21.6893 17.464 22.044C17.464 22.4733 17.3987 22.8093 17.268 23.052C17.1373 23.2947 16.932 23.5093 16.652 23.696C15.0467 24.7787 13.8707 25.5813 13.124 26.104L11.332 27.308C10.6227 31.172 9.68933 34.2053 8.532 36.408C7.39333 38.6293 5.93733 39.74 4.164 39.74C3.212 39.74 2.43733 39.4413 1.84 38.844C1.24267 38.2653 0.944 37.5 0.944 36.548C0.944 35.2227 1.46667 33.7947 2.512 32.264C3.55733 30.752 5.51733 28.8853 8.392 26.664L8.56 25.572C8.24267 26.076 7.82267 26.468 7.3 26.748C6.796 27.0093 6.292 27.14 5.788 27.14C4.63067 27.14 3.70667 26.72 3.016 25.88C2.32533 25.04 1.98 23.9387 1.98 22.576C1.98 21.0827 2.32533 19.6733 3.016 18.348C3.70667 17.004 4.62133 15.9307 5.76 15.128C6.91733 14.3067 8.14 13.896 9.428 13.896C9.83867 13.896 10.1093 13.98 10.24 14.148C10.3893 14.2973 10.5107 14.5773 10.604 14.988C10.9587 14.9133 11.3693 14.876 11.836 14.876C12.3027 14.876 12.6293 14.9507 12.816 15.1C13.0213 15.2307 13.124 15.5013 13.124 15.912C13.124 16.136 13.1147 16.3133 13.096 16.444C13.0213 17.0227 12.788 18.488 12.396 20.84C12.3213 21.288 12.2373 21.7827 12.144 22.324C12.0693 22.8467 11.9853 23.4067 11.892 24.004C13.3293 22.884 14.7107 21.8947 16.036 21.036C16.2787 20.8867 16.4933 20.812 16.68 20.812ZM6.796 24.312C7.22533 24.312 7.636 24.0507 8.028 23.528C8.42 23.0053 8.7 22.2587 8.868 21.288L9.764 16.5C8.99867 16.5187 8.28933 16.8173 7.636 17.396C6.98267 17.956 6.46 18.7027 6.068 19.636C5.676 20.5693 5.48 21.5587 5.48 22.604C5.48 23.1827 5.592 23.612 5.816 23.892C6.05867 24.172 6.38533 24.312 6.796 24.312ZM4.472 37.024C4.93867 37.024 5.46133 36.464 6.04 35.344C6.63733 34.224 7.20667 32.4413 7.748 29.996C6.31067 31.228 5.27467 32.3387 4.64 33.328C4.00533 34.3173 3.688 35.1853 3.688 35.932C3.688 36.2493 3.744 36.5107 3.856 36.716C3.98667 36.9213 4.192 37.024 4.472 37.024ZM18.913 27.14C17.7557 27.14 16.8317 26.72 16.141 25.88C15.4503 25.04 15.105 23.9387 15.105 22.576C15.105 21.0827 15.4503 19.6733 16.141 18.348C16.8317 17.004 17.7463 15.9307 18.885 15.128C20.0423 14.3067 21.265 13.896 22.553 13.896C22.9637 13.896 23.2343 13.98 23.365 14.148C23.5143 14.2973 23.6357 14.5773 23.729 14.988C24.121 14.9133 24.5317 14.876 24.961 14.876C25.8757 14.876 26.333 15.2027 26.333 15.856C26.333 16.248 26.193 17.1813 25.913 18.656C25.4837 20.8027 25.269 22.296 25.269 23.136C25.269 23.416 25.3343 23.64 25.465 23.808C25.6143 23.976 25.801 24.06 26.025 24.06C26.3797 24.06 26.809 23.836 27.313 23.388C27.817 22.9213 28.4983 22.1747 29.357 21.148C29.581 20.8867 29.833 20.756 30.113 20.756C30.3557 20.756 30.5423 20.868 30.673 21.092C30.8223 21.316 30.897 21.624 30.897 22.016C30.897 22.7627 30.7197 23.3413 30.365 23.752C29.5997 24.704 28.7877 25.5067 27.929 26.16C27.0703 26.8133 26.2397 27.14 25.437 27.14C24.821 27.14 24.2517 26.9347 23.729 26.524C23.225 26.0947 22.8423 25.516 22.581 24.788C21.6103 26.356 20.3877 27.14 18.913 27.14ZM19.921 24.312C20.3317 24.312 20.7237 24.0693 21.097 23.584C21.4703 23.0987 21.741 22.4547 21.909 21.652L22.945 16.5C22.161 16.5187 21.433 16.8173 20.761 17.396C20.1077 17.956 19.585 18.7027 19.193 19.636C18.801 20.5693 18.605 21.5587 18.605 22.604C18.605 23.1827 18.717 23.612 18.941 23.892C19.1837 24.172 19.5103 24.312 19.921 24.312ZM39.2333 20.756C39.476 20.756 39.6627 20.868 39.7933 21.092C39.9427 21.316 40.0173 21.624 40.0173 22.016C40.0173 22.7627 39.84 23.3413 39.4853 23.752C38.6827 24.7413 37.8053 25.5533 36.8533 26.188C35.92 26.8227 34.856 27.14 33.6613 27.14C32.0187 27.14 30.796 26.3933 29.9933 24.9C29.2093 23.4067 28.8173 21.4747 28.8173 19.104C28.8173 16.8267 29.1067 14.232 29.6853 11.32C30.2827 8.408 31.1507 5.90667 32.2893 3.816C33.4467 1.72533 34.8187 0.679998 36.4053 0.679998C37.3013 0.679998 38.0013 1.1 38.5053 1.94C39.028 2.76133 39.2893 3.94667 39.2893 5.496C39.2893 7.71733 38.6733 10.2933 37.4413 13.224C36.2093 16.1547 34.5387 19.0573 32.4293 21.932C32.56 22.6973 32.7747 23.248 33.0733 23.584C33.372 23.9013 33.764 24.06 34.2493 24.06C35.0147 24.06 35.6867 23.8453 36.2653 23.416C36.844 22.968 37.5813 22.212 38.4773 21.148C38.7013 20.8867 38.9533 20.756 39.2333 20.756ZM35.7893 3.452C35.36 3.452 34.8747 4.22667 34.3333 5.776C33.792 7.32533 33.316 9.248 32.9053 11.544C32.4947 13.84 32.2707 16.0427 32.2333 18.152C33.5587 15.968 34.6133 13.784 35.3973 11.6C36.1813 9.39733 36.5733 7.39067 36.5733 5.58C36.5733 4.16133 36.312 3.452 35.7893 3.452ZM48.3662 20.756C48.6088 20.756 48.7955 20.868 48.9262 21.092C49.0755 21.316 49.1502 21.624 49.1502 22.016C49.1502 22.7627 48.9728 23.3413 48.6182 23.752C47.8155 24.7413 46.9382 25.5533 45.9862 26.188C45.0528 26.8227 43.9888 27.14 42.7942 27.14C41.1515 27.14 39.9288 26.3933 39.1262 24.9C38.3422 23.4067 37.9502 21.4747 37.9502 19.104C37.9502 16.8267 38.2395 14.232 38.8182 11.32C39.4155 8.408 40.2835 5.90667 41.4222 3.816C42.5795 1.72533 43.9515 0.679998 45.5382 0.679998C46.4342 0.679998 47.1342 1.1 47.6382 1.94C48.1608 2.76133 48.4222 3.94667 48.4222 5.496C48.4222 7.71733 47.8062 10.2933 46.5742 13.224C45.3422 16.1547 43.6715 19.0573 41.5622 21.932C41.6928 22.6973 41.9075 23.248 42.2062 23.584C42.5048 23.9013 42.8968 24.06 43.3822 24.06C44.1475 24.06 44.8195 23.8453 45.3982 23.416C45.9768 22.968 46.7142 22.212 47.6102 21.148C47.8342 20.8867 48.0862 20.756 48.3662 20.756ZM44.9222 3.452C44.4928 3.452 44.0075 4.22667 43.4662 5.776C42.9248 7.32533 42.4488 9.248 42.0382 11.544C41.6275 13.84 41.4035 16.0427 41.3662 18.152C42.6915 15.968 43.7462 13.784 44.5302 11.6C45.3142 9.39733 45.7062 7.39067 45.7062 5.58C45.7062 4.16133 45.4448 3.452 44.9222 3.452ZM59.375 20.756C59.6176 20.756 59.8043 20.868 59.935 21.092C60.0843 21.316 60.159 21.624 60.159 22.016C60.159 22.7627 59.9816 23.3413 59.627 23.752C58.9363 24.592 57.9563 25.3667 56.687 26.076C55.4363 26.7853 54.0923 27.14 52.655 27.14C50.695 27.14 49.1736 26.608 48.091 25.544C47.0083 24.48 46.467 23.024 46.467 21.176C46.467 19.888 46.7376 18.6933 47.279 17.592C47.8203 16.472 48.567 15.5853 49.519 14.932C50.4896 14.2787 51.5816 13.952 52.795 13.952C53.8776 13.952 54.7456 14.2787 55.399 14.932C56.0523 15.5667 56.379 16.4347 56.379 17.536C56.379 18.824 55.9123 19.9347 54.979 20.868C54.0643 21.7827 52.5056 22.5107 50.303 23.052C50.7696 23.9107 51.6563 24.34 52.963 24.34C53.803 24.34 54.755 24.0507 55.819 23.472C56.9016 22.8747 57.835 22.1 58.619 21.148C58.843 20.8867 59.095 20.756 59.375 20.756ZM52.319 16.696C51.6283 16.696 51.0403 17.0973 50.555 17.9C50.0883 18.7027 49.855 19.6733 49.855 20.812V20.868C50.9563 20.6067 51.8243 20.2147 52.459 19.692C53.0936 19.1693 53.411 18.5627 53.411 17.872C53.411 17.5173 53.3083 17.2373 53.103 17.032C52.9163 16.808 52.655 16.696 52.319 16.696ZM59.8672 27.14C59.1578 27.14 58.6538 26.7667 58.3552 26.02C58.0752 25.2733 57.9352 24.0787 57.9352 22.436C57.9352 20.0093 58.2805 17.704 58.9712 15.52C59.1392 14.9787 59.4098 14.5867 59.7832 14.344C60.1752 14.0827 60.7165 13.952 61.4072 13.952C61.7805 13.952 62.0418 13.9987 62.1912 14.092C62.3405 14.1853 62.4152 14.3627 62.4152 14.624C62.4152 14.9227 62.2752 15.5947 61.9952 16.64C61.8085 17.3867 61.6592 18.04 61.5472 18.6C61.4352 19.16 61.3418 19.8507 61.2672 20.672C61.8832 19.0667 62.5738 17.76 63.3392 16.752C64.1045 15.744 64.8512 15.0253 65.5792 14.596C66.3258 14.1667 67.0072 13.952 67.6232 13.952C68.8365 13.952 69.4432 14.5587 69.4432 15.772C69.4432 16.0147 69.3592 16.6027 69.1912 17.536C69.0418 18.2827 68.9672 18.7493 68.9672 18.936C68.9672 19.5893 69.2005 19.916 69.6672 19.916C70.1898 19.916 70.8618 19.5053 71.6832 18.684C71.9258 18.4413 72.1778 18.32 72.4392 18.32C72.6818 18.32 72.8685 18.432 72.9992 18.656C73.1485 18.8613 73.2232 19.1413 73.2232 19.496C73.2232 20.1867 73.0365 20.728 72.6632 21.12C72.1405 21.6613 71.5245 22.128 70.8152 22.52C70.1245 22.8933 69.3872 23.08 68.6032 23.08C67.6138 23.08 66.8578 22.828 66.3352 22.324C65.8312 21.82 65.5792 21.1387 65.5792 20.28C65.5792 20 65.6072 19.72 65.6632 19.44C65.7005 19.0667 65.7192 18.8147 65.7192 18.684C65.7192 18.3853 65.6165 18.236 65.4112 18.236C65.1312 18.236 64.7578 18.5533 64.2912 19.188C63.8432 19.804 63.3952 20.6253 62.9472 21.652C62.4992 22.6787 62.1352 23.7613 61.8552 24.9C61.6498 25.7773 61.4072 26.3747 61.1272 26.692C60.8658 26.9907 60.4458 27.14 59.8672 27.14ZM80.4213 13.952C80.8507 13.952 81.1493 14.008 81.3173 14.12C81.4853 14.232 81.5693 14.4187 81.5693 14.68C81.5693 15.128 81.3267 16.724 80.8413 19.468C80.412 22.1 80.16 23.6587 80.0853 24.144C79.3947 28.9413 78.4427 32.74 77.2293 35.54C76.016 38.34 74.4013 39.74 72.3853 39.74C71.4333 39.74 70.6587 39.4413 70.0613 38.844C69.464 38.2653 69.1653 37.5 69.1653 36.548C69.1653 35.6707 69.3613 34.7747 69.7533 33.86C70.164 32.9453 70.9107 31.8907 71.9933 30.696C73.0947 29.52 74.644 28.1667 76.6413 26.636L76.7253 25.992C76.856 25.3013 77.0053 24.312 77.1733 23.024C76.8 24.368 76.2773 25.3947 75.6053 26.104C74.9333 26.7947 74.224 27.14 73.4773 27.14C72.6373 27.14 71.9467 26.7573 71.4053 25.992C70.8827 25.208 70.6213 24.2373 70.6213 23.08C70.6213 21.68 70.7147 20.4013 70.9013 19.244C71.088 18.068 71.396 16.8267 71.8253 15.52C72.012 14.96 72.2733 14.5587 72.6093 14.316C72.9453 14.0733 73.4773 13.952 74.2053 13.952C74.616 13.952 74.896 14.0173 75.0453 14.148C75.2133 14.2787 75.2973 14.4747 75.2973 14.736C75.2973 14.8853 75.1947 15.3893 74.9893 16.248C74.8027 16.9387 74.6533 17.564 74.5413 18.124C74.392 18.8893 74.2613 19.6267 74.1493 20.336C74.0373 21.0267 73.9813 21.596 73.9813 22.044C73.9813 22.7533 74.1773 23.108 74.5693 23.108C74.8493 23.108 75.1947 22.828 75.6053 22.268C76.0347 21.708 76.4827 20.8587 76.9493 19.72C77.4347 18.5813 77.9013 17.1813 78.3493 15.52C78.4987 14.96 78.7227 14.5587 79.0213 14.316C79.3387 14.0733 79.8053 13.952 80.4213 13.952ZM72.6933 37.024C73.16 37.024 73.6827 36.4827 74.2613 35.4C74.84 34.3173 75.4187 32.516 75.9973 29.996C74.56 31.2093 73.5147 32.3107 72.8613 33.3C72.2267 34.308 71.9093 35.1853 71.9093 35.932C71.9093 36.2493 71.9653 36.5107 72.0773 36.716C72.208 36.9213 72.4133 37.024 72.6933 37.024Z" fill="#FF5757"/>
</svg>
